<?xml version="1.0" encoding="utf-8"?>
<!-- Generator: Adobe Illustrator 25.2.0, SVG Export Plug-In . SVG Version: 6.00 Build 0)  -->
<svg version="1.1" id="Layer_1" xmlns="http://www.w3.org/2000/svg" xmlns:xlink="http://www.w3.org/1999/xlink" x="0px" y="0px"
	 viewBox="0 0 32 40" style="enable-background:new 0 0 32 40;" xml:space="preserve">
<style type="text/css">
	.st0{fill:#FFFFFF;}
</style>
<path class="st0" d="M27,8.8C26.9,8.3,26.5,8,26,8h-2.1c-0.6-4.4-4.6-7.5-9-6.9C11.4,1.6,8.5,4.4,8.1,8H6C5.5,8,5.1,8.3,5,8.8l-4,21
	c-0.1,0.5,0.2,1.1,0.8,1.2c0.1,0,0.1,0,0.2,0h28c0.6,0,1-0.4,1-1c0-0.1,0-0.1,0-0.2L27,8.8z M16,3c2.9,0,5.4,2.1,5.9,5H10.1
	C10.6,5.1,13.1,3,16,3z M3.2,29l3.6-19H8v6c0,0.6,0.4,1,1,1s1-0.4,1-1v-6h12v6c0,0.6,0.4,1,1,1s1-0.4,1-1v-6h1.2l3.6,19H3.2z"/>
<text transform="matrix(1 0 0 1 0 47)" style="font-family:'Arial-BoldMT'; font-size:5px;">Created by Yogi Aprelliyanto</text>
<text transform="matrix(1 0 0 1 0 52)" style="font-family:'Arial-BoldMT'; font-size:5px;">from the Noun Project</text>
</svg>
