<?xml version="1.0" encoding="utf-8"?>
<!-- Generator: Adobe Illustrator 25.2.0, SVG Export Plug-In . SVG Version: 6.00 Build 0)  -->
<svg version="1.1"
	 id="Layer_1" xmlns:cc="http://creativecommons.org/ns#" xmlns:dc="http://purl.org/dc/elements/1.1/" xmlns:inkscape="http://www.inkscape.org/namespaces/inkscape" xmlns:rdf="http://www.w3.org/1999/02/22-rdf-syntax-ns#" xmlns:sodipodi="http://sodipodi.sourceforge.net/DTD/sodipodi-0.dtd" xmlns:svg="http://www.w3.org/2000/svg"
	 xmlns="http://www.w3.org/2000/svg" xmlns:xlink="http://www.w3.org/1999/xlink" x="0px" y="0px" viewBox="0 0 100 125"
	 style="enable-background:new 0 0 100 125;" xml:space="preserve">
<style type="text/css">
	.st0{font-family:'Arial-BoldMT';}
	.st1{font-size:5px;}
</style>
<g transform="translate(0,-952.36218)">
	<path d="M31.2,968.4c-5.2,0-10.4,2-14.3,6c-7.9,8-7.9,21,0,29.1l31.6,32.3c0.8,0.8,2,0.8,2.8,0c0,0,0,0,0,0
		c10.6-10.7,21.1-21.5,31.7-32.2c7.9-8,7.9-21,0-29.1s-20.8-8-28.7,0l-4.4,4.5l-4.4-4.5C41.6,970.4,36.4,968.4,31.2,968.4
		L31.2,968.4z M31.2,972.3c4.1,0,8.3,1.7,11.5,4.9l5.9,6c0.8,0.8,2,0.8,2.8,0c0,0,0,0,0,0l5.8-5.9c6.4-6.5,16.5-6.5,22.9,0
		c6.4,6.5,6.4,17,0,23.5c-10.1,10.3-20.1,20.5-30.2,30.8l-30.2-30.8c-6.4-6.5-6.4-17,0-23.5C23,974,27.1,972.3,31.2,972.3z"/>
</g>
<text transform="matrix(1 0 0 1 0 120)" class="st0 st1">t</text>
</svg>
