<?xml version="1.0" encoding="utf-8"?>
<!-- Generator: Adobe Illustrator 25.2.0, SVG Export Plug-In . SVG Version: 6.00 Build 0)  -->
<svg version="1.1" id="Layer_1" xmlns="http://www.w3.org/2000/svg" xmlns:xlink="http://www.w3.org/1999/xlink" x="0px" y="0px"
	 viewBox="0 0 100 125" style="enable-background:new 0 0 100 125;" xml:space="preserve">
<style type="text/css">
	.st0{fill:#8E8686;}
</style>
<g>
	<path class="st0" d="M67.8,18.7H32.2c-7.4,0-13.5,6.1-13.5,13.5v35.5c0,7.4,6.1,13.5,13.5,13.5h35.5c7.4,0,13.5-6.1,13.5-13.5V32.2
		C81.3,24.8,75.2,18.7,67.8,18.7z M61,28.7c0-1.2,1-2.2,2.2-2.2h6.6c1.2,0,2.2,1,2.2,2.2v6.6c0,1.2-1,2.2-2.2,2.2h-6.6
		c-1.2,0-2.2-1-2.2-2.2C61,35.3,61,28.7,61,28.7z M67.8,78H32.2C26.6,78,22,73.4,22,67.8V41.3h14.6c3.2-3.9,8-6.4,13.4-6.4
		s10.2,2.5,13.4,6.4H78v26.5C78,73.4,73.4,78,67.8,78z"/>
	<circle class="st0" cx="50" cy="51.3" r="14.4"/>
</g>
</svg>
