<?xml version="1.0" encoding="utf-8"?>
<!-- Generator: Adobe Illustrator 25.2.0, SVG Export Plug-In . SVG Version: 6.00 Build 0)  -->
<svg version="1.1" id="Layer_1" xmlns="http://www.w3.org/2000/svg" xmlns:xlink="http://www.w3.org/1999/xlink" x="0px" y="0px"
	 viewBox="0 0 333 416.2" style="enable-background:new 0 0 333 416.2;" xml:space="preserve">
<style type="text/css">
	.st0{fill-rule:evenodd;clip-rule:evenodd;fill:#8E8686;}
</style>
<g>
	<path class="st0" d="M103,61l29,29c7,7,8,18,2,25l-24,24c-1,0-2,1-3,2c19,35,51,66,86,85c0-1,1-2,2-2l24-24c6-7,17-6,25,2l28,28
		c8,8,8,18,2,25C201,340-7,133,79,59C85,54,96,54,103,61z"/>
</g>
</svg>
