<?xml version="1.0" encoding="utf-8"?>
<!-- Generator: Adobe Illustrator 25.2.0, SVG Export Plug-In . SVG Version: 6.00 Build 0)  -->
<svg version="1.1"
	 id="Layer_1" xmlns:cc="http://creativecommons.org/ns#" xmlns:dc="http://purl.org/dc/elements/1.1/" xmlns:inkscape="http://www.inkscape.org/namespaces/inkscape" xmlns:rdf="http://www.w3.org/1999/02/22-rdf-syntax-ns#" xmlns:sodipodi="http://sodipodi.sourceforge.net/DTD/sodipodi-0.dtd" xmlns:svg="http://www.w3.org/2000/svg"
	 xmlns="http://www.w3.org/2000/svg" xmlns:xlink="http://www.w3.org/1999/xlink" x="0px" y="0px" viewBox="0 0 100 125"
	 style="enable-background:new 0 0 100 125;" xml:space="preserve">
<style type="text/css">
	.st0{fill:#FFFFFF;}
	.st1{font-family:'Arial-BoldMT';}
	.st2{font-size:5px;}
</style>
<g transform="translate(0,-952.36218)">
	<path class="st0" d="M43,966.4c-16,0-29,13-29,29c0,16,13,29,29,29c6.9,0,13.3-2.4,18.2-6.5l19.6,19.6c1.2,1.2,3.1,1.2,4.2,0
		c1.2-1.2,1.2-3,0-4.2l-19.6-19.6c4.1-5,6.5-11.4,6.5-18.3C72,979.4,59,966.4,43,966.4L43,966.4z M43,972.4c12.7,0,23,10.3,23,23
		c0,12.7-10.3,23-23,23s-23-10.3-23-23C20,982.6,30.3,972.4,43,972.4z"/>
</g>
<text transform="matrix(1 0 0 1 0 115)" class="st1 st2">Created by Zaff Studio</text>
<text transform="matrix(1 0 0 1 0 120)" class="st1 st2">from the Noun Project</text>
</svg>
