<?xml version="1.0" encoding="utf-8"?>
<!-- Generator: Adobe Illustrator 25.2.0, SVG Export Plug-In . SVG Version: 6.00 Build 0)  -->
<svg version="1.1" id="Layer_1" xmlns="http://www.w3.org/2000/svg" xmlns:xlink="http://www.w3.org/1999/xlink" x="0px" y="0px"
	 viewBox="0 0 100 125" style="enable-background:new 0 0 100 125;" xml:space="preserve">
<g>
	<path d="M11.6,25.2c9.6,0,18.5,4.8,23.9,12.6c1.3,1.9,3.8,2.4,5.7,1.1c1.9-1.3,2.4-3.8,1.1-5.7v0C35.4,23.1,24,17,11.6,17
		c-2.3,0-4.1,1.8-4.1,4.1C7.5,23.4,9.3,25.2,11.6,25.2z"/>
	<path d="M92.5,74.4c0-0.6-0.1-1.1-0.3-1.6l-0.6-0.9l-0.3-0.4l-14-14c-1.6-1.6-4.2-1.6-5.8,0c-1.6,1.6-1.6,4.2,0,5.8v0l6.9,6.9
		c-8-0.1-15.5-3.5-20.9-9.2c-1.5-1.7-4.1-1.8-5.8-0.2c-1.7,1.5-1.8,4.1-0.2,5.8c6.9,7.4,16.5,11.8,26.9,11.9l-7,7
		c-1.6,1.6-1.6,4.2,0,5.8c1.6,1.6,4.2,1.6,5.8,0l14-14l0.2-0.3l0.7-1.1C92.4,75.5,92.5,75,92.5,74.4z"/>
	<path d="M91.6,23.1l-0.3-0.4l-14-14c-1.6-1.6-4.2-1.6-5.8,0c-1.6,1.6-1.6,4.2,0,5.8v0l7,7c-14.2,0.1-27,8.3-33.2,21.1l-7.6,15.8
		c-4.8,10-15,16.4-26.1,16.4c-2.3,0-4.1,1.8-4.1,4.1c0,2.3,1.8,4.1,4.1,4.1v0c14.3,0,27.3-8.2,33.5-21.1l7.6-15.8
		c4.8-9.9,14.7-16.3,25.7-16.4l-6.9,6.9c-1.6,1.6-1.6,4.2,0,5.8c1.6,1.6,4.2,1.6,5.8,0l14-14l0.2-0.3l0.7-1.1c0.2-0.5,0.3-1,0.3-1.6
		c0-0.6-0.1-1.1-0.3-1.6L91.6,23.1z"/>
</g>
</svg>
