<?xml version="1.0" encoding="utf-8"?>
<!-- Generator: Adobe Illustrator 25.2.0, SVG Export Plug-In . SVG Version: 6.00 Build 0)  -->
<svg version="1.1" id="Layer_1" xmlns="http://www.w3.org/2000/svg" xmlns:xlink="http://www.w3.org/1999/xlink" x="0px" y="0px"
	 viewBox="0 0 100 125" style="enable-background:new 0 0 100 125;" xml:space="preserve">
<style type="text/css">
	.st0{fill:#8E8686;}
</style>
<path class="st0" d="M91.8,5c-5.1,0.9-10.1,0.1-15.1,0.4C51.9,7.3,53.9,24.6,54.4,36.3C37,39,15.8,33.7,8.2,35.4
	c2.5,3.8,8.3,9.5,12.7,10.8c-2.5,1.7-5.7,2.1-8.7,3.1c4.1,3.2,8.1,6.2,13.1,8.1c-2.4,0.9-4.7,2-7.2,2.7c5.8,6,15.1,8.3,23.1,8.9
	c-6.3,18-18.4,17.6-25.8,19.4c12.8,5.5,32.7,8.6,42.5,4.8c15.1-5.9,23.3-15,28.6-30.5c3.3-9.7,1.6-17.5-0.9-27.6
	c-1.6-6.4-2.3-9-1.8-15.6C84.6,11.3,90,6.3,91.8,5z"/>
</svg>
