<?xml version="1.0" encoding="utf-8"?>
<!-- Generator: Adobe Illustrator 25.2.0, SVG Export Plug-In . SVG Version: 6.00 Build 0)  -->
<svg version="1.1" id="Layer_1" xmlns="http://www.w3.org/2000/svg" xmlns:xlink="http://www.w3.org/1999/xlink" x="0px" y="0px"
	 viewBox="0 0 100 125" style="enable-background:new 0 0 100 125;" xml:space="preserve">
<style type="text/css">
	.st0{fill:#8E8686;}
</style>
<path class="st0" d="M71.5,27.5h-43c-6.1,0-11,4.9-11,11v23c0,6.1,4.9,11,11,11h43c6.1,0,11-4.9,11-11v-23
	C82.5,32.4,77.6,27.5,71.5,27.5z M62.7,50.4l-19.5,10c-0.2,0.1-0.5,0-0.7-0.2c0-0.1-0.1-0.1-0.1-0.2V40c0-0.3,0.2-0.5,0.5-0.5
	c0.1,0,0.2,0,0.2,0.1l19.5,10c0.2,0.1,0.3,0.4,0.2,0.7C62.9,50.3,62.8,50.4,62.7,50.4L62.7,50.4z"/>
</svg>
